<svg xmlns="http://www.w3.org/2000/svg" width="39" height="39" viewBox="0 0 39 39">
    <path d="M22.75 13H24.375C24.806 13 25.2193 12.8288 25.524 12.524C25.8288 12.2193 26 11.806 26 11.375C26 10.944 25.8288 10.5307 25.524 10.226C25.2193 9.92121 24.806 9.75 24.375 9.75H22.75C22.319 9.75 21.9057 9.92121 21.601 10.226C21.2962 10.5307 21.125 10.944 21.125 11.375C21.125 11.806 21.2962 12.2193 21.601 12.524C21.9057 12.8288 22.319 13 22.75 13ZM22.75 19.5H24.375C24.806 19.5 25.2193 19.3288 25.524 19.024C25.8288 18.7193 26 18.306 26 17.875C26 17.444 25.8288 17.0307 25.524 16.726C25.2193 16.4212 24.806 16.25 24.375 16.25H22.75C22.319 16.25 21.9057 16.4212 21.601 16.726C21.2962 17.0307 21.125 17.444 21.125 17.875C21.125 18.306 21.2962 18.7193 21.601 19.024C21.9057 19.3288 22.319 19.5 22.75 19.5ZM14.625 13H16.25C16.681 13 17.0943 12.8288 17.399 12.524C17.7038 12.2193 17.875 11.806 17.875 11.375C17.875 10.944 17.7038 10.5307 17.399 10.226C17.0943 9.92121 16.681 9.75 16.25 9.75H14.625C14.194 9.75 13.7807 9.92121 13.476 10.226C13.1712 10.5307 13 10.944 13 11.375C13 11.806 13.1712 12.2193 13.476 12.524C13.7807 12.8288 14.194 13 14.625 13ZM14.625 19.5H16.25C16.681 19.5 17.0943 19.3288 17.399 19.024C17.7038 18.7193 17.875 18.306 17.875 17.875C17.875 17.444 17.7038 17.0307 17.399 16.726C17.0943 16.4212 16.681 16.25 16.25 16.25H14.625C14.194 16.25 13.7807 16.4212 13.476 16.726C13.1712 17.0307 13 17.444 13 17.875C13 18.306 13.1712 18.7193 13.476 19.024C13.7807 19.3288 14.194 19.5 14.625 19.5ZM34.125 32.5H32.5V4.875C32.5 4.44402 32.3288 4.0307 32.024 3.72595C31.7193 3.4212 31.306 3.25 30.875 3.25H8.125C7.69402 3.25 7.2807 3.4212 6.97595 3.72595C6.67121 4.0307 6.5 4.44402 6.5 4.875V32.5H4.875C4.44402 32.5 4.0307 32.6712 3.72595 32.976C3.4212 33.2807 3.25 33.694 3.25 34.125C3.25 34.556 3.4212 34.9693 3.72595 35.274C4.0307 35.5788 4.44402 35.75 4.875 35.75H34.125C34.556 35.75 34.9693 35.5788 35.274 35.274C35.5788 34.9693 35.75 34.556 35.75 34.125C35.75 33.694 35.5788 33.2807 35.274 32.976C34.9693 32.6712 34.556 32.5 34.125 32.5ZM21.125 32.5H17.875V26H21.125V32.5ZM29.25 32.5H24.375V24.375C24.375 23.944 24.2038 23.5307 23.899 23.226C23.5943 22.9212 23.181 22.75 22.75 22.75H16.25C15.819 22.75 15.4057 22.9212 15.101 23.226C14.7962 23.5307 14.625 23.944 14.625 24.375V32.5H9.75V6.5H29.25V32.5Z"/>
</svg>