<svg xmlns="http://www.w3.org/2000/svg" width="39" height="39" viewBox="0 0 39 39" fill="none">
    <path d="M19.0349 11.1037C18.6142 11.1037 18.2107 11.2709 17.9132 11.5683C17.6157 11.8658 17.4486 12.2693 17.4486 12.69V19.035C17.4486 19.4557 17.6157 19.8592 17.9132 20.1566C18.2107 20.4541 18.6142 20.6212 19.0349 20.6212C19.4556 20.6212 19.859 20.4541 20.1565 20.1566C20.454 19.8592 20.6211 19.4557 20.6211 19.035V12.69C20.6211 12.2693 20.454 11.8658 20.1565 11.5683C19.859 11.2709 19.4556 11.1037 19.0349 11.1037ZM20.4942 24.7772C20.4595 24.6761 20.4115 24.5801 20.3515 24.4917L20.1611 24.2537C19.938 24.0336 19.6548 23.8845 19.3471 23.8253C19.0393 23.766 18.721 23.7992 18.4321 23.9206C18.2399 24.001 18.0628 24.1136 17.9086 24.2537C17.7616 24.402 17.6453 24.5777 17.5664 24.771C17.4874 24.9643 17.4474 25.1712 17.4486 25.38C17.4511 25.5873 17.4942 25.7921 17.5755 25.9828C17.6468 26.1796 17.7604 26.3584 17.9085 26.5064C18.0565 26.6544 18.2352 26.7681 18.4321 26.8393C18.622 26.9233 18.8273 26.9666 19.0349 26.9666C19.2425 26.9666 19.4478 26.9233 19.6376 26.8393C19.8345 26.7681 20.0133 26.6544 20.1613 26.5064C20.3093 26.3584 20.423 26.1796 20.4942 25.9828C20.5755 25.7921 20.6186 25.5873 20.6211 25.38C20.6289 25.2744 20.6289 25.1683 20.6211 25.0627C20.5938 24.9616 20.551 24.8653 20.4942 24.7772ZM19.0349 3.17249C15.8976 3.17249 12.8307 4.1028 10.2221 5.8458C7.61356 7.58879 5.58043 10.0662 4.37983 12.9647C3.17924 15.8632 2.86511 19.0526 3.47716 22.1296C4.08922 25.2066 5.59998 28.0331 7.81839 30.2515C10.0368 32.4699 12.8632 33.9806 15.9403 34.5927C19.0173 35.2048 22.2067 34.8906 25.1052 33.69C28.0037 32.4894 30.4811 30.4563 32.2241 27.8477C33.967 25.2391 34.8974 22.1723 34.8974 19.035C34.8974 16.9519 34.4871 14.8892 33.6899 12.9647C32.8927 11.0401 31.7243 9.29147 30.2514 7.8185C28.7784 6.34553 27.0297 5.17711 25.1052 4.37995C23.1807 3.58278 21.118 3.17249 19.0349 3.17249ZM19.0349 31.725C16.525 31.725 14.0715 30.9807 11.9847 29.5863C9.89782 28.1919 8.27132 26.21 7.31084 23.8912C6.35036 21.5724 6.09906 19.0209 6.58871 16.5593C7.07835 14.0977 8.28696 11.8365 10.0617 10.0618C11.8364 8.28707 14.0976 7.07847 16.5592 6.58882C19.0208 6.09917 21.5723 6.35048 23.8911 7.31095C26.2099 8.27143 28.1918 9.89794 29.5862 11.9848C30.9806 14.0717 31.7249 16.5251 31.7249 19.035C31.7249 22.4006 30.3879 25.6283 28.0081 28.0082C25.6282 30.388 22.4005 31.725 19.0349 31.725Z" fill="white"/>
</svg>