<svg xmlns="http://www.w3.org/2000/svg" width="39" height="39" viewBox="0 0 39 39" fill="none">
    <path d="M18.1038 3.63794C14.9666 3.63794 11.8998 4.56823 9.29128 6.31118C6.68278 8.05413 4.6497 10.5314 3.44913 13.4299C2.24857 16.3283 1.93445 19.5176 2.54649 22.5945C3.15853 25.6715 4.66925 28.4978 6.8876 30.7162C9.10595 32.9345 11.9323 34.4453 15.0092 35.0573C18.0862 35.6693 21.2755 35.3552 24.1739 34.1547C27.0723 32.9541 29.5497 30.921 31.2926 28.3125C33.0355 25.704 33.9658 22.6372 33.9658 19.5C33.9658 17.417 33.5556 15.3543 32.7584 13.4299C31.9613 11.5054 30.7929 9.75676 29.32 8.28383C27.847 6.8109 26.0984 5.64251 24.1739 4.84537C22.2495 4.04822 20.1868 3.63794 18.1038 3.63794ZM18.1038 32.1897C15.594 32.1897 13.1406 31.4454 11.0538 30.0511C8.96698 28.6567 7.34051 26.6749 6.38006 24.3561C5.41961 22.0374 5.16832 19.4859 5.65795 17.0244C6.14758 14.5628 7.35615 12.3017 9.13083 10.5271C10.9055 8.75239 13.1666 7.54382 15.6281 7.05418C18.0897 6.56455 20.6412 6.81585 22.9599 7.7763C25.2786 8.73675 27.2605 10.3632 28.6548 12.45C30.0492 14.5368 30.7934 16.9902 30.7934 19.5C30.7934 22.8655 29.4565 26.0932 27.0767 28.473C24.6969 30.8527 21.4693 32.1897 18.1038 32.1897ZM23.021 20.4993L19.69 18.58V11.569C19.69 11.1483 19.5229 10.7448 19.2254 10.4474C18.9279 10.1499 18.5245 9.98277 18.1038 9.98277C17.6831 9.98277 17.2796 10.1499 16.9822 10.4474C16.6847 10.7448 16.5176 11.1483 16.5176 11.569V19.5C16.5176 19.5 16.5176 19.6269 16.5176 19.6904C16.527 19.7996 16.5537 19.9067 16.5969 20.0076C16.6295 20.1017 16.6721 20.1921 16.7238 20.2773C16.7672 20.3674 16.8204 20.4525 16.8824 20.531L17.1362 20.7373L17.2789 20.88L21.4031 23.2593C21.6448 23.3963 21.9183 23.4674 22.1962 23.4655C22.5474 23.468 22.8895 23.3538 23.1688 23.1409C23.4482 22.928 23.6489 22.6284 23.7397 22.2891C23.8304 21.9498 23.8059 21.59 23.6701 21.2661C23.5343 20.9422 23.2949 20.6725 22.9893 20.4993H23.021Z" fill="white"/>
</svg>