<svg xmlns="http://www.w3.org/2000/svg" width="39" height="39" viewBox="0 0 39 39" fill="none">
    <path d="M14.2761 30.1387C14.4834 30.1362 14.6882 30.0931 14.8789 30.0118C15.0711 29.9315 15.2482 29.8188 15.4024 29.6787C15.4741 29.6007 15.5379 29.5157 15.5927 29.4249C15.6555 29.3439 15.7038 29.2527 15.7355 29.1553C15.7922 29.0672 15.8351 28.9709 15.8624 28.8697C15.8701 28.7641 15.8701 28.6581 15.8624 28.5525C15.8599 28.3452 15.8167 28.1404 15.7355 27.9497C15.6642 27.7529 15.5506 27.5741 15.4025 27.4261C15.2545 27.278 15.0757 27.1644 14.8789 27.0931C14.5917 26.96 14.2713 26.9158 13.9589 26.9662L13.6733 27.0614C13.5759 27.0931 13.4847 27.1414 13.4037 27.2042C13.3129 27.259 13.2279 27.3228 13.1499 27.3945C13.0055 27.5454 12.8923 27.7233 12.8168 27.918C12.7313 28.1185 12.6881 28.3345 12.6899 28.5525C12.6899 28.9732 12.857 29.3767 13.1545 29.6741C13.4519 29.9716 13.8554 30.1387 14.2761 30.1387ZM8.39113 29.6787C8.54531 29.8188 8.72236 29.9315 8.91459 30.0118C9.10529 30.0931 9.31008 30.1362 9.51736 30.1387H9.81875C9.92382 30.124 10.0257 30.0919 10.1201 30.0436C10.2212 30.0088 10.3172 29.9608 10.4057 29.9008L10.6436 29.7104C10.7837 29.5563 10.8964 29.3792 10.9767 29.187C11.0705 28.9891 11.1141 28.7712 11.1036 28.5525C11.1114 28.4469 11.1114 28.3408 11.1036 28.2352C11.0863 28.1359 11.0542 28.0396 11.0084 27.9497C10.9768 27.8523 10.9285 27.761 10.8657 27.68C10.8109 27.5893 10.7471 27.5043 10.6753 27.4262C10.4523 27.2061 10.169 27.057 9.86128 26.9978C9.55357 26.9385 9.23519 26.9717 8.94631 27.0931C8.7516 27.1686 8.57371 27.2818 8.42285 27.4262C8.35108 27.5043 8.28731 27.5893 8.2325 27.68C8.16972 27.761 8.12142 27.8523 8.08974 27.9497C8.0218 28.0357 7.96823 28.1321 7.93111 28.2352C7.92333 28.3408 7.92333 28.4469 7.93111 28.5525C7.93362 28.7598 7.97673 28.9646 8.05801 29.1553C8.13834 29.3475 8.25101 29.5245 8.39113 29.6787ZM30.1386 3.17249H7.93111C6.66901 3.17249 5.45861 3.67385 4.56617 4.56629C3.67373 5.45873 3.17236 6.66914 3.17236 7.93124V30.1387C3.17236 31.4008 3.67373 32.6112 4.56617 33.5037C5.45861 34.3961 6.66901 34.8975 7.93111 34.8975H30.1386C31.4007 34.8975 32.6111 34.3961 33.5036 33.5037C34.396 32.6112 34.8974 31.4008 34.8974 30.1387V7.93124C34.8974 6.66914 34.396 5.45873 33.5036 4.56629C32.6111 3.67385 31.4007 3.17249 30.1386 3.17249ZM31.7249 30.1387C31.7249 30.5594 31.5577 30.9629 31.2603 31.2604C30.9628 31.5579 30.5593 31.725 30.1386 31.725H7.93111C7.51041 31.725 7.10694 31.5579 6.80947 31.2604C6.51199 30.9629 6.34486 30.5594 6.34486 30.1387V25.38H31.7249V30.1387ZM31.7249 22.2075H6.34486V15.8625H12.6899C12.8986 15.8637 13.1056 15.8237 13.2988 15.7447C13.4921 15.6658 13.6679 15.5495 13.8161 15.4025L15.8624 13.4197L20.3039 18.4957C20.4471 18.659 20.6225 18.7911 20.8189 18.8839C21.0154 18.9767 21.2288 19.0281 21.446 19.035C21.6547 19.0362 21.8617 18.9962 22.0549 18.9172C22.2482 18.8383 22.424 18.722 22.5722 18.575L25.2371 15.8625H31.7249V22.2075ZM31.7249 12.69H24.5867C24.378 12.6888 24.171 12.7288 23.9778 12.8077C23.7845 12.8867 23.6087 13.003 23.4605 13.15L21.4936 15.1328L17.0521 10.0568C16.9037 9.89833 16.7243 9.77199 16.5252 9.68562C16.326 9.59924 16.1112 9.55468 15.8941 9.55468C15.677 9.55468 15.4622 9.59924 15.263 9.68562C15.0638 9.77199 14.8845 9.89833 14.7361 10.0568L12.0395 12.69H6.34486V7.93124C6.34486 7.51054 6.51199 7.10707 6.80947 6.80959C7.10694 6.51211 7.51041 6.34499 7.93111 6.34499H30.1386C30.5593 6.34499 30.9628 6.51211 31.2603 6.80959C31.5577 7.10707 31.7249 7.51054 31.7249 7.93124V12.69Z" fill="white"/>
</svg>