<svg xmlns="http://www.w3.org/2000/svg" width="39" height="39" viewBox="0 0 39 39">
    <path d="M24.375 27.625C24.0536 27.625 23.7394 27.7203 23.4722 27.8989C23.205 28.0774 22.9967 28.3312 22.8737 28.6281C22.7507 28.9251 22.7185 29.2518 22.7812 29.567C22.8439 29.8822 22.9987 30.1718 23.226 30.399C23.4532 30.6263 23.7428 30.7811 24.058 30.8438C24.3732 30.9065 24.6999 30.8743 24.9969 30.7513C25.2938 30.6283 25.5476 30.42 25.7261 30.1528C25.9047 29.8856 26 29.5714 26 29.25C26 28.819 25.8288 28.4057 25.524 28.101C25.2193 27.7962 24.806 27.625 24.375 27.625ZM14.625 27.625H9.75C9.31902 27.625 8.9057 27.7962 8.60095 28.101C8.29621 28.4057 8.125 28.819 8.125 29.25C8.125 29.681 8.29621 30.0943 8.60095 30.399C8.9057 30.7038 9.31902 30.875 9.75 30.875H14.625C15.056 30.875 15.4693 30.7038 15.774 30.399C16.0788 30.0943 16.25 29.681 16.25 29.25C16.25 28.819 16.0788 28.4057 15.774 28.101C15.4693 27.7962 15.056 27.625 14.625 27.625ZM29.25 27.625C28.9286 27.625 28.6144 27.7203 28.3472 27.8989C28.08 28.0774 27.8717 28.3312 27.7487 28.6281C27.6257 28.9251 27.5935 29.2518 27.6562 29.567C27.7189 29.8822 27.8737 30.1718 28.101 30.399C28.3282 30.6263 28.6178 30.7811 28.933 30.8438C29.2482 30.9065 29.5749 30.8743 29.8719 30.7513C30.1688 30.6283 30.4226 30.42 30.6011 30.1528C30.7797 29.8856 30.875 29.5714 30.875 29.25C30.875 28.819 30.7038 28.4057 30.399 28.101C30.0943 27.7962 29.681 27.625 29.25 27.625ZM24.375 17.875C24.0536 17.875 23.7394 17.9703 23.4722 18.1489C23.205 18.3274 22.9967 18.5812 22.8737 18.8781C22.7507 19.1751 22.7185 19.5018 22.7812 19.817C22.8439 20.1322 22.9987 20.4218 23.226 20.649C23.4532 20.8763 23.7428 21.0311 24.058 21.0938C24.3732 21.1565 24.6999 21.1243 24.9969 21.0013C25.2938 20.8783 25.5476 20.67 25.7261 20.4028C25.9047 20.1356 26 19.8214 26 19.5C26 19.069 25.8288 18.6557 25.524 18.351C25.2193 18.0462 24.806 17.875 24.375 17.875ZM14.625 17.875H9.75C9.31902 17.875 8.9057 18.0462 8.60095 18.351C8.29621 18.6557 8.125 19.069 8.125 19.5C8.125 19.931 8.29621 20.3443 8.60095 20.649C8.9057 20.9538 9.31902 21.125 9.75 21.125H14.625C15.056 21.125 15.4693 20.9538 15.774 20.649C16.0788 20.3443 16.25 19.931 16.25 19.5C16.25 19.069 16.0788 18.6557 15.774 18.351C15.4693 18.0462 15.056 17.875 14.625 17.875ZM29.25 8.125C28.9286 8.125 28.6144 8.2203 28.3472 8.39886C28.08 8.57742 27.8717 8.83121 27.7487 9.12814C27.6257 9.42507 27.5935 9.7518 27.6562 10.067C27.7189 10.3822 27.8737 10.6718 28.101 10.899C28.3282 11.1263 28.6178 11.2811 28.933 11.3438C29.2482 11.4065 29.5749 11.3743 29.8719 11.2513C30.1688 11.1283 30.4226 10.92 30.6011 10.6528C30.7797 10.3856 30.875 10.0714 30.875 9.75C30.875 9.31902 30.7038 8.9057 30.399 8.60095C30.0943 8.29621 29.681 8.125 29.25 8.125ZM29.25 17.875C28.9286 17.875 28.6144 17.9703 28.3472 18.1489C28.08 18.3274 27.8717 18.5812 27.7487 18.8781C27.6257 19.1751 27.5935 19.5018 27.6562 19.817C27.7189 20.1322 27.8737 20.4218 28.101 20.649C28.3282 20.8763 28.6178 21.0311 28.933 21.0938C29.2482 21.1565 29.5749 21.1243 29.8719 21.0013C30.1688 20.8783 30.4226 20.67 30.6011 20.4028C30.7797 20.1356 30.875 19.8214 30.875 19.5C30.875 19.069 30.7038 18.6557 30.399 18.351C30.0943 18.0462 29.681 17.875 29.25 17.875ZM35.75 8.125C35.75 6.83207 35.2364 5.59209 34.3221 4.67785C33.4079 3.76361 32.1679 3.25 30.875 3.25H8.125C6.83207 3.25 5.59209 3.76361 4.67785 4.67785C3.76361 5.59209 3.25 6.83207 3.25 8.125V11.375C3.25717 12.5776 3.70859 13.7351 4.5175 14.625C3.70859 15.5149 3.25717 16.6724 3.25 17.875V21.125C3.25717 22.3276 3.70859 23.4851 4.5175 24.375C3.70859 25.2649 3.25717 26.4224 3.25 27.625V30.875C3.25 32.1679 3.76361 33.4079 4.67785 34.3221C5.59209 35.2364 6.83207 35.75 8.125 35.75H30.875C32.1679 35.75 33.4079 35.2364 34.3221 34.3221C35.2364 33.4079 35.75 32.1679 35.75 30.875V27.625C35.7428 26.4224 35.2914 25.2649 34.4825 24.375C35.2914 23.4851 35.7428 22.3276 35.75 21.125V17.875C35.7428 16.6724 35.2914 15.5149 34.4825 14.625C35.2914 13.7351 35.7428 12.5776 35.75 11.375V8.125ZM32.5 30.875C32.5 31.306 32.3288 31.7193 32.024 32.024C31.7193 32.3288 31.306 32.5 30.875 32.5H8.125C7.69402 32.5 7.2807 32.3288 6.97595 32.024C6.67121 31.7193 6.5 31.306 6.5 30.875V27.625C6.5 27.194 6.67121 26.7807 6.97595 26.476C7.2807 26.1712 7.69402 26 8.125 26H30.875C31.306 26 31.7193 26.1712 32.024 26.476C32.3288 26.7807 32.5 27.194 32.5 27.625V30.875ZM32.5 21.125C32.5 21.556 32.3288 21.9693 32.024 22.274C31.7193 22.5788 31.306 22.75 30.875 22.75H8.125C7.69402 22.75 7.2807 22.5788 6.97595 22.274C6.67121 21.9693 6.5 21.556 6.5 21.125V17.875C6.5 17.444 6.67121 17.0307 6.97595 16.726C7.2807 16.4212 7.69402 16.25 8.125 16.25H30.875C31.306 16.25 31.7193 16.4212 32.024 16.726C32.3288 17.0307 32.5 17.444 32.5 17.875V21.125ZM32.5 11.375C32.5 11.806 32.3288 12.2193 32.024 12.524C31.7193 12.8288 31.306 13 30.875 13H8.125C7.69402 13 7.2807 12.8288 6.97595 12.524C6.67121 12.2193 6.5 11.806 6.5 11.375V8.125C6.5 7.69402 6.67121 7.2807 6.97595 6.97595C7.2807 6.67121 7.69402 6.5 8.125 6.5H30.875C31.306 6.5 31.7193 6.67121 32.024 6.97595C32.3288 7.2807 32.5 7.69402 32.5 8.125V11.375ZM24.375 8.125C24.0536 8.125 23.7394 8.2203 23.4722 8.39886C23.205 8.57742 22.9967 8.83121 22.8737 9.12814C22.7507 9.42507 22.7185 9.7518 22.7812 10.067C22.8439 10.3822 22.9987 10.6718 23.226 10.899C23.4532 11.1263 23.7428 11.2811 24.058 11.3438C24.3732 11.4065 24.6999 11.3743 24.9969 11.2513C25.2938 11.1283 25.5476 10.92 25.7261 10.6528C25.9047 10.3856 26 10.0714 26 9.75C26 9.31902 25.8288 8.9057 25.524 8.60095C25.2193 8.29621 24.806 8.125 24.375 8.125ZM14.625 8.125H9.75C9.31902 8.125 8.9057 8.29621 8.60095 8.60095C8.29621 8.9057 8.125 9.31902 8.125 9.75C8.125 10.181 8.29621 10.5943 8.60095 10.899C8.9057 11.2038 9.31902 11.375 9.75 11.375H14.625C15.056 11.375 15.4693 11.2038 15.774 10.899C16.0788 10.5943 16.25 10.181 16.25 9.75C16.25 9.31902 16.0788 8.9057 15.774 8.60095C15.4693 8.29621 15.056 8.125 14.625 8.125Z"/>
</svg>