<svg xmlns="http://www.w3.org/2000/svg" width="39" height="39" viewBox="0 0 39 39">
    <path d="M13 9.75C13.3214 9.75 13.6356 9.65469 13.9028 9.47614C14.17 9.29758 14.3783 9.04379 14.5013 8.74686C14.6243 8.44993 14.6565 8.1232 14.5938 7.80798C14.5311 7.49276 14.3763 7.20321 14.149 6.97595C13.9218 6.74869 13.6322 6.59392 13.317 6.53122C13.0018 6.46852 12.6751 6.5007 12.3781 6.6237C12.0812 6.74669 11.8274 6.95497 11.6489 7.2222C11.4703 7.48943 11.375 7.80361 11.375 8.125C11.375 8.55598 11.5462 8.9693 11.851 9.27405C12.1557 9.57879 12.569 9.75 13 9.75ZM34.125 30.875H24.0825C23.8399 30.1935 23.4486 29.5745 22.937 29.063C22.4255 28.5514 21.8065 28.1601 21.125 27.9175V24.375H27.625C28.9179 24.375 30.1579 23.8614 31.0721 22.9471C31.9864 22.0329 32.5 20.7929 32.5 19.5V16.25C32.4928 15.0474 32.0414 13.8899 31.2325 13C32.0414 12.1101 32.4928 10.9526 32.5 9.75V6.5C32.5 5.20707 31.9864 3.96709 31.0721 3.05285C30.1579 2.13861 28.9179 1.625 27.625 1.625H11.375C10.0821 1.625 8.84209 2.13861 7.92785 3.05285C7.01361 3.96709 6.5 5.20707 6.5 6.5V9.75C6.50717 10.9526 6.95859 12.1101 7.7675 13C6.95859 13.8899 6.50717 15.0474 6.5 16.25V19.5C6.5 20.7929 7.01361 22.0329 7.92785 22.9471C8.84209 23.8614 10.0821 24.375 11.375 24.375H17.875V27.9175C17.1935 28.1601 16.5745 28.5514 16.063 29.063C15.5514 29.5745 15.1601 30.1935 14.9175 30.875H4.875C4.44402 30.875 4.0307 31.0462 3.72595 31.3509C3.4212 31.6557 3.25 32.069 3.25 32.5C3.25 32.931 3.4212 33.3443 3.72595 33.649C4.0307 33.9538 4.44402 34.125 4.875 34.125H14.9175C15.2591 35.0661 15.8821 35.8792 16.702 36.4539C17.5219 37.0285 18.4988 37.3368 19.5 37.3368C20.5012 37.3368 21.4781 37.0285 22.298 36.4539C23.1179 35.8792 23.7409 35.0661 24.0825 34.125H34.125C34.556 34.125 34.9693 33.9538 35.274 33.649C35.5788 33.3443 35.75 32.931 35.75 32.5C35.75 32.069 35.5788 31.6557 35.274 31.3509C34.9693 31.0462 34.556 30.875 34.125 30.875ZM9.75 6.5C9.75 6.06902 9.92121 5.6557 10.226 5.35095C10.5307 5.0462 10.944 4.875 11.375 4.875H27.625C28.056 4.875 28.4693 5.0462 28.774 5.35095C29.0788 5.6557 29.25 6.06902 29.25 6.5V9.75C29.25 10.181 29.0788 10.5943 28.774 10.899C28.4693 11.2038 28.056 11.375 27.625 11.375H11.375C10.944 11.375 10.5307 11.2038 10.226 10.899C9.92121 10.5943 9.75 10.181 9.75 9.75V6.5ZM11.375 21.125C10.944 21.125 10.5307 20.9538 10.226 20.649C9.92121 20.3443 9.75 19.931 9.75 19.5V16.25C9.75 15.819 9.92121 15.4057 10.226 15.101C10.5307 14.7962 10.944 14.625 11.375 14.625H27.625C28.056 14.625 28.4693 14.7962 28.774 15.101C29.0788 15.4057 29.25 15.819 29.25 16.25V19.5C29.25 19.931 29.0788 20.3443 28.774 20.649C28.4693 20.9538 28.056 21.125 27.625 21.125H11.375ZM19.5 34.125C19.1786 34.125 18.8644 34.0297 18.5972 33.8511C18.33 33.6726 18.1217 33.4188 17.9987 33.1219C17.8757 32.8249 17.8435 32.4982 17.9062 32.183C17.9689 31.8678 18.1237 31.5782 18.351 31.3509C18.5782 31.1237 18.8678 30.9689 19.183 30.9062C19.4982 30.8435 19.8249 30.8757 20.1219 30.9987C20.4188 31.1217 20.6726 31.33 20.8511 31.5972C21.0297 31.8644 21.125 32.1786 21.125 32.5C21.125 32.931 20.9538 33.3443 20.649 33.649C20.3443 33.9538 19.931 34.125 19.5 34.125ZM13 16.25C12.6786 16.25 12.3644 16.3453 12.0972 16.5239C11.83 16.7024 11.6217 16.9562 11.4987 17.2531C11.3757 17.5501 11.3435 17.8768 11.4062 18.192C11.4689 18.5072 11.6237 18.7968 11.851 19.024C12.0782 19.2513 12.3678 19.4061 12.683 19.4688C12.9982 19.5315 13.3249 19.4993 13.6219 19.3763C13.9188 19.2533 14.1726 19.045 14.3511 18.7778C14.5297 18.5106 14.625 18.1964 14.625 17.875C14.625 17.444 14.4538 17.0307 14.149 16.726C13.8443 16.4212 13.431 16.25 13 16.25Z"/>
</svg>