<svg xmlns="http://www.w3.org/2000/svg" width="33" height="33" viewBox="0 0 33 33">
    <path d="M29.315 13.1313L26.7163 12.265L27.94 9.8175C28.0641 9.56132 28.1056 9.27296 28.0588 8.99219C28.012 8.71143 27.8792 8.45211 27.6788 8.25L24.75 5.32125C24.5468 5.11787 24.285 4.98329 24.0014 4.93643C23.7177 4.88957 23.4266 4.93278 23.1688 5.06L20.7213 6.28375L19.855 3.685C19.7635 3.41412 19.5899 3.17849 19.3582 3.01091C19.1266 2.84333 18.8484 2.75213 18.5625 2.75H14.4375C14.1492 2.74926 13.868 2.83913 13.6336 3.00691C13.3992 3.17469 13.2235 3.4119 13.1313 3.685L12.265 6.28375L9.8175 5.06C9.56132 4.93595 9.27296 4.89446 8.99219 4.94125C8.71143 4.98805 8.45211 5.12082 8.25 5.32125L5.32125 8.25C5.11787 8.45318 4.98329 8.715 4.93643 8.99863C4.88957 9.28227 4.93278 9.57346 5.06 9.83125L6.28375 12.2788L3.685 13.145C3.41412 13.2365 3.17849 13.4101 3.01091 13.6418C2.84333 13.8735 2.75213 14.1516 2.75 14.4375V18.5625C2.74926 18.8508 2.83913 19.132 3.00691 19.3664C3.17469 19.6008 3.4119 19.7765 3.685 19.8688L6.28375 20.735L5.06 23.1825C4.93595 23.4387 4.89446 23.7271 4.94125 24.0078C4.98805 24.2886 5.12082 24.5479 5.32125 24.75L8.25 27.6788C8.45318 27.8821 8.715 28.0167 8.99863 28.0636C9.28227 28.1104 9.57346 28.0672 9.83125 27.94L12.2788 26.7163L13.145 29.315C13.2372 29.5881 13.413 29.8253 13.6474 29.9931C13.8818 30.1609 14.163 30.2507 14.4513 30.25H18.5763C18.8645 30.2507 19.1457 30.1609 19.3801 29.9931C19.6145 29.8253 19.7903 29.5881 19.8825 29.315L20.7488 26.7163L23.1963 27.94C23.4508 28.0609 23.7364 28.1007 24.0143 28.054C24.2922 28.0073 24.549 27.8763 24.75 27.6788L27.6788 24.75C27.8821 24.5468 28.0167 24.285 28.0636 24.0014C28.1104 23.7177 28.0672 23.4266 27.94 23.1688L26.7163 20.7213L29.315 19.855C29.5859 19.7635 29.8215 19.5899 29.9891 19.3582C30.1567 19.1266 30.2479 18.8484 30.25 18.5625V14.4375C30.2507 14.1492 30.1609 13.868 29.9931 13.6336C29.8253 13.3992 29.5881 13.2235 29.315 13.1313ZM27.5 17.5725L25.85 18.1225C25.4706 18.2456 25.1225 18.4497 24.8298 18.7208C24.5372 18.9918 24.307 19.3233 24.1553 19.6922C24.0035 20.0611 23.9338 20.4586 23.9511 20.8571C23.9683 21.2556 24.072 21.6456 24.255 22L25.0388 23.5675L23.5263 25.08L22 24.255C21.6474 24.0793 21.2612 23.9815 20.8674 23.968C20.4737 23.9546 20.0817 24.0259 19.7179 24.1772C19.3542 24.3284 19.0272 24.556 18.759 24.8447C18.4909 25.1333 18.2879 25.4761 18.1638 25.85L17.6138 27.5H15.4275L14.8775 25.85C14.7544 25.4706 14.5503 25.1225 14.2792 24.8298C14.0082 24.5372 13.6767 24.307 13.3078 24.1553C12.9389 24.0035 12.5415 23.9338 12.1429 23.9511C11.7444 23.9683 11.3544 24.072 11 24.255L9.4325 25.0388L7.92 23.5263L8.745 22C8.92801 21.6456 9.03172 21.2556 9.04894 20.8571C9.06617 20.4586 8.99649 20.0611 8.84475 19.6922C8.693 19.3233 8.46282 18.9918 8.17018 18.7208C7.87753 18.4497 7.52943 18.2456 7.15 18.1225L5.5 17.5725V15.4275L7.15 14.8775C7.52943 14.7544 7.87753 14.5503 8.17018 14.2792C8.46282 14.0082 8.693 13.6767 8.84475 13.3078C8.99649 12.9389 9.06617 12.5415 9.04894 12.1429C9.03172 11.7444 8.92801 11.3544 8.745 11L7.96125 9.47375L9.47375 7.96125L11 8.745C11.3544 8.92801 11.7444 9.03172 12.1429 9.04894C12.5415 9.06617 12.9389 8.99649 13.3078 8.84475C13.6767 8.693 14.0082 8.46282 14.2792 8.17018C14.5503 7.87753 14.7544 7.52943 14.8775 7.15L15.4275 5.5H17.5725L18.1225 7.15C18.2456 7.52943 18.4497 7.87753 18.7208 8.17018C18.9918 8.46282 19.3233 8.693 19.6922 8.84475C20.0611 8.99649 20.4586 9.06617 20.8571 9.04894C21.2556 9.03172 21.6456 8.92801 22 8.745L23.5675 7.96125L25.08 9.47375L24.255 11C24.0793 11.3526 23.9815 11.7389 23.968 12.1326C23.9546 12.5263 24.0259 12.9183 24.1772 13.2821C24.3284 13.6458 24.556 13.9728 24.8447 14.241C25.1333 14.5091 25.4761 14.7121 25.85 14.8363L27.5 15.3863V17.5725ZM16.5 11C15.4122 11 14.3488 11.3226 13.4444 11.9269C12.5399 12.5313 11.8349 13.3903 11.4187 14.3952C11.0024 15.4002 10.8935 16.5061 11.1057 17.573C11.3179 18.6399 11.8417 19.6199 12.6109 20.3891C13.3801 21.1583 14.3601 21.6821 15.427 21.8943C16.4939 22.1065 17.5998 21.9976 18.6048 21.5813C19.6098 21.1651 20.4687 20.4601 21.0731 19.5556C21.6774 18.6512 22 17.5878 22 16.5C22 15.0413 21.4205 13.6424 20.3891 12.6109C19.3576 11.5795 17.9587 11 16.5 11V11ZM16.5 19.25C15.9561 19.25 15.4244 19.0887 14.9722 18.7865C14.52 18.4844 14.1675 18.0549 13.9593 17.5524C13.7512 17.0499 13.6967 16.497 13.8028 15.9635C13.909 15.4301 14.1709 14.9401 14.5555 14.5555C14.9401 14.1709 15.4301 13.909 15.9635 13.8028C16.497 13.6967 17.0499 13.7512 17.5524 13.9593C18.0549 14.1675 18.4844 14.52 18.7865 14.9722C19.0887 15.4244 19.25 15.9561 19.25 16.5C19.25 17.2293 18.9603 17.9288 18.4445 18.4445C17.9288 18.9603 17.2293 19.25 16.5 19.25Z"/>
</svg>