<svg xmlns="http://www.w3.org/2000/svg" width="33" height="33" viewBox="0 0 33 33" fill="none">
    <path d="M24.75 18.1225V13.75C24.748 11.8018 24.0567 9.91714 22.7983 8.42981C21.54 6.94249 19.796 5.94845 17.875 5.62375V4.125C17.875 3.76033 17.7301 3.41059 17.4723 3.15273C17.2144 2.89487 16.8647 2.75 16.5 2.75C16.1353 2.75 15.7856 2.89487 15.5277 3.15273C15.2699 3.41059 15.125 3.76033 15.125 4.125V5.62375C13.204 5.94845 11.46 6.94249 10.2017 8.42981C8.94334 9.91714 8.25197 11.8018 8.25 13.75V18.1225C7.44762 18.4062 6.75262 18.9311 6.26029 19.6253C5.76796 20.3195 5.50239 21.149 5.5 22V24.75C5.5 25.1147 5.64487 25.4644 5.90273 25.7223C6.16059 25.9801 6.51033 26.125 6.875 26.125H11.1925C11.5091 27.2901 12.2004 28.3187 13.1596 29.052C14.1188 29.7853 15.2926 30.1826 16.5 30.1826C17.7074 30.1826 18.8812 29.7853 19.8404 29.052C20.7996 28.3187 21.4909 27.2901 21.8075 26.125H26.125C26.4897 26.125 26.8394 25.9801 27.0973 25.7223C27.3551 25.4644 27.5 25.1147 27.5 24.75V22C27.4976 21.149 27.232 20.3195 26.7397 19.6253C26.2474 18.9311 25.5524 18.4062 24.75 18.1225V18.1225ZM11 13.75C11 12.2913 11.5795 10.8924 12.6109 9.86091C13.6424 8.82946 15.0413 8.25 16.5 8.25C17.9587 8.25 19.3576 8.82946 20.3891 9.86091C21.4205 10.8924 22 12.2913 22 13.75V17.875H11V13.75ZM16.5 27.5C16.0201 27.4971 15.5493 27.3687 15.1344 27.1274C14.7195 26.8862 14.375 26.5406 14.135 26.125H18.865C18.625 26.5406 18.2805 26.8862 17.8656 27.1274C17.4507 27.3687 16.9799 27.4971 16.5 27.5ZM24.75 23.375H8.25V22C8.25 21.6353 8.39487 21.2856 8.65273 21.0277C8.91059 20.7699 9.26033 20.625 9.625 20.625H23.375C23.7397 20.625 24.0894 20.7699 24.3473 21.0277C24.6051 21.2856 24.75 21.6353 24.75 22V23.375Z" fill="#A3CAF3"/>
</svg>