<svg xmlns="http://www.w3.org/2000/svg" width="39" height="39" viewBox="0 0 39 39">
    <path d="M36.5623 23.5625C36.5623 22.7006 36.2199 21.8739 35.6104 21.2644C35.0009 20.6549 34.1743 20.3125 33.3123 20.3125H23.5623C22.7004 20.3125 21.8737 20.6549 21.2642 21.2644C20.6547 21.8739 20.3123 22.7006 20.3123 23.5625H15.4373V18.6875H19.2236C20.6357 18.6899 22.0026 18.1897 23.0797 17.2765C24.1568 16.3633 24.8738 15.0966 25.1025 13.7031C25.3312 12.3096 25.0565 10.8802 24.3278 9.67065C23.599 8.4611 22.4636 7.55032 21.1248 7.10125C20.3817 5.55172 19.1665 4.2777 17.6537 3.46232C16.141 2.64694 14.4087 2.3322 12.7058 2.56334C11.0029 2.79449 9.4172 3.55961 8.17654 4.74872C6.93589 5.93784 6.10422 7.48971 5.80107 9.18126C4.7006 9.54295 3.76488 10.2847 3.16159 11.2736C2.55829 12.2625 2.32684 13.4339 2.50871 14.5779C2.69058 15.7219 3.27389 16.7638 4.15411 17.5169C5.03432 18.2699 6.15393 18.6849 7.31232 18.6875H12.1873V31.6875C12.1873 32.1185 12.3585 32.5318 12.6633 32.8366C12.968 33.1413 13.3813 33.3125 13.8123 33.3125H20.3123C20.3123 34.1745 20.6547 35.0011 21.2642 35.6106C21.8737 36.2201 22.7004 36.5625 23.5623 36.5625H33.3123C34.1743 36.5625 35.0009 36.2201 35.6104 35.6106C36.2199 35.0011 36.5623 34.1745 36.5623 33.3125V30.0625C36.5564 29.4902 36.3994 28.9297 36.1073 28.4375C36.3994 27.9453 36.5564 27.3848 36.5623 26.8125V23.5625ZM7.31232 15.4375C6.88134 15.4375 6.46802 15.2663 6.16327 14.9616C5.85853 14.6568 5.68732 14.2435 5.68732 13.8125C5.68732 13.3815 5.85853 12.9682 6.16327 12.6635C6.46802 12.3587 6.88134 12.1875 7.31232 12.1875C7.7433 12.1875 8.15662 12.0163 8.46137 11.7116C8.76612 11.4068 8.93732 10.9935 8.93732 10.5625C8.92421 9.40283 9.32495 8.27647 10.0676 7.38569C10.8102 6.49491 11.8461 5.89806 12.9892 5.70232C14.1323 5.50658 15.3078 5.72478 16.3045 6.31773C17.3012 6.91068 18.0539 7.83954 18.4273 8.9375C18.5226 9.21372 18.6907 9.45911 18.9138 9.64786C19.1368 9.8366 19.4066 9.96171 19.6948 10.01C20.3331 10.1157 20.9117 10.4486 21.3238 10.9473C21.736 11.446 21.9538 12.077 21.9373 12.7238C21.9373 13.4435 21.6514 14.1337 21.1425 14.6427C20.6336 15.1516 19.9433 15.4375 19.2236 15.4375H7.31232ZM20.3123 30.0625H15.4373V26.8125H20.3123C20.3183 27.3848 20.4752 27.9453 20.7673 28.4375C20.4752 28.9297 20.3183 29.4902 20.3123 30.0625ZM23.5623 33.3125V30.0625H33.3123V33.3125H23.5623ZM23.5623 26.8125V23.5625H33.3123V26.8125H23.5623Z"/>
</svg>